<?xml version="1.0" encoding="iso-8859-1"?>
<!-- Generator: Adobe Illustrator 19.0.0, SVG Export Plug-In . SVG Version: 6.00 Build 0)  -->
<svg version="1.1" id="Layer_1"
    xmlns="http://www.w3.org/2000/svg"
    xmlns:xlink="http://www.w3.org/1999/xlink" x="0px" y="0px" viewBox="0 0 512 512" style="enable-background:new 0 0 512 512;" xml:space="preserve">
    <g>
        <path style="fill:#CEE8FA;" d="M164.719,386.964c-22.576,0-40.949-18.365-40.949-40.949c0-22.588,18.374-40.952,40.949-40.952
		h53.697v40.952c0,22.585-18.376,40.949-40.961,40.949H164.719z"/>
        <path style="fill:#CEE8FA;" d="M334.535,362.143c-22.576,0-40.949-18.365-40.949-40.949c0-22.588,18.374-40.952,40.949-40.952
		h53.697v40.952c0,22.585-18.376,40.949-40.961,40.949H334.535z"/>
    </g>
    <g>
        <path style="fill:#2D527C;" d="M397.678,113.914c-3.264-2.772-7.583-3.972-11.807-3.279l-169.816,27.846
		c-7.054,1.156-12.231,7.252-12.231,14.399v61.014v76.575h-39.105c-30.626,0-55.541,24.916-55.541,55.544
		c0,30.625,24.916,55.541,55.541,55.541h12.735c30.632,0,55.553-24.916,55.553-55.541v-22.585v-18.368v-91.165v-48.62
		l140.633-23.062v31.437l-85.929,14.068c-7.952,1.302-13.344,8.804-12.042,16.757c1.302,7.952,8.797,13.337,16.757,12.042
		l81.215-13.296v62.425h-39.105c-30.626,0-55.541,24.916-55.541,55.544c0,30.625,24.915,55.541,55.541,55.541h12.735
		c30.632,0,55.553-24.916,55.553-55.541v-14.5v-26.453v-94.191v-11.715v-49.297C402.823,120.753,400.941,116.687,397.678,113.914z
		 M203.825,346.015c0,14.533-11.829,26.358-26.37,26.358h-12.735c-14.535,0-26.358-11.825-26.358-26.358
		c0-14.535,11.825-26.361,26.358-26.361h39.105v3.776V346.015z M373.64,321.193c0,14.533-11.829,26.358-26.37,26.358h-12.735
		c-14.533,0-26.358-11.825-26.358-26.358c0-14.535,11.825-26.361,26.358-26.361h39.105v11.861V321.193z"/>
        <path style="fill:#2D527C;" d="M256.001,512c-141.159,0-256-114.841-256-256s114.841-256,256-256
		c42.617,0,84.814,10.687,122.034,30.906c7.081,3.846,9.703,12.706,5.857,19.787c-3.848,7.083-12.708,9.703-19.788,5.857
		c-32.956-17.905-70.338-27.368-108.104-27.368C130.933,29.183,29.184,130.932,29.184,256s101.749,226.817,226.817,226.817
		S482.818,381.066,482.818,256c0-47.913-14.753-93.712-42.665-132.447c-4.712-6.538-3.229-15.657,3.308-20.368
		c6.538-4.712,15.657-3.231,20.368,3.308c31.513,43.735,48.171,95.434,48.171,149.507C512.001,397.159,397.16,512,256.001,512z"/>
    </g>
    <g>
    </g>
    <g>
    </g>
    <g>
    </g>
    <g>
    </g>
    <g>
    </g>
    <g>
    </g>
    <g>
    </g>
    <g>
    </g>
    <g>
    </g>
    <g>
    </g>
    <g>
    </g>
    <g>
    </g>
    <g>
    </g>
    <g>
    </g>
    <g>
    </g>
</svg>
